<?xml version="1.0" encoding="UTF-8"?>
<svg version="1.1" xmlns="http://www.w3.org/2000/svg" width="1024" height="1024">
<path d="M0 0 C1.12735565 -0.00571014 2.2547113 -0.01142029 3.41622925 -0.01730347 C4.65889557 -0.01842133 5.90156189 -0.01953918 7.18188477 -0.02069092 C8.48594269 -0.02565582 9.79000061 -0.03062073 11.13357544 -0.03573608 C14.71612115 -0.04886654 18.29864812 -0.05530591 21.88121414 -0.05974674 C24.1174978 -0.06267552 26.3537763 -0.06677988 28.59005737 -0.07125092 C35.58141208 -0.08492554 42.57275504 -0.09459322 49.5641222 -0.09845281 C57.64530811 -0.10293817 65.72632526 -0.12050824 73.80745983 -0.1494534 C80.04782302 -0.17103276 86.28813858 -0.18115502 92.5285387 -0.18249393 C96.25882765 -0.18354436 99.98895796 -0.1895027 103.71920776 -0.20731354 C107.87614276 -0.22677588 112.03272189 -0.22252031 116.18969727 -0.21600342 C117.43236359 -0.2252182 118.67502991 -0.23443298 119.95535278 -0.243927 C121.64638626 -0.23557327 121.64638626 -0.23557327 123.37158203 -0.22705078 C124.84716331 -0.22925062 124.84716331 -0.22925062 126.35255432 -0.2314949 C127.12252243 -0.10875576 127.89249054 0.01398338 128.68579102 0.14044189 C131.0002804 3.61217598 130.93849461 4.95300439 130.94458008 9.04888916 C130.9508844 10.26347305 130.95718872 11.47805695 130.96368408 12.72944641 C130.95761139 14.69826027 130.95761139 14.69826027 130.95141602 16.70684814 C130.95276321 18.06540496 130.9547042 19.42396131 130.95721436 20.78251648 C130.96016207 23.6280273 130.95587875 26.47341248 130.9465332 29.31890869 C130.93512788 32.96983344 130.94170698 36.6204645 130.95367813 40.27137852 C130.96089708 43.07574181 130.95860886 45.88003519 130.95342255 48.68440056 C130.95143631 50.68639695 130.95751857 52.68839603 130.96368408 54.69038391 C130.9542276 56.50753151 130.9542276 56.50753151 130.94458008 58.36138916 C130.94298889 59.43155777 130.94139771 60.50172638 130.9397583 61.60432434 C130.68579102 64.14044189 130.68579102 64.14044189 128.68579102 66.14044189 C125.91516113 66.41218567 125.91516113 66.41218567 122.34008789 66.44342041 C121.36423485 66.45607941 121.36423485 66.45607941 120.3686676 66.46899414 C118.21395152 66.49482581 116.05937251 66.5069245 113.90454102 66.51934814 C112.41002306 66.53551716 110.91551572 66.55269652 109.42102051 66.57084656 C105.48285829 66.6165902 101.54468202 66.65136511 97.60638428 66.68304443 C91.30209412 66.73486618 84.99796013 66.79999519 78.69386292 66.87125969 C76.48802059 66.89413062 74.28219816 66.91037803 72.07629395 66.92597961 C70.72802513 66.93938481 69.37975837 66.95299948 68.03149414 66.96685791 C66.85171997 66.97636978 65.6719458 66.98588165 64.4564209 66.99568176 C61.72720514 66.95309485 61.72720514 66.95309485 59.68579102 68.14044189 C59.74721967 78.64210602 59.82448104 89.14352607 59.92150593 99.64492512 C59.96607919 104.52207575 60.00536352 109.39914534 60.03222656 114.27642822 C60.05839036 118.99041128 60.09888364 123.70408032 60.14897728 128.41786766 C60.16555807 130.20898699 60.17712671 132.00016052 60.18340492 133.7913456 C60.24069263 148.64413357 61.27895751 161.79951577 71.68969727 173.36700439 C83.88829248 185.02004526 99.50662643 187.19090042 115.68579102 187.14044189 C134.91122884 186.00334042 151.4929578 177.30213083 164.40063477 163.27716064 C177.09979119 147.54637536 180.63366959 128.56403489 181.24829102 108.95294189 C181.26946991 108.29967926 181.2906488 107.64641663 181.31246948 106.97335815 C182.01885174 84.42629184 181.77366663 61.8527532 181.69252014 39.29795837 C181.67676192 34.24549999 181.68579102 29.19292434 181.68579102 24.14044189 C183.49829102 23.45294189 183.49829102 23.45294189 185.68579102 23.14044189 C187.17016602 24.40216064 187.17016602 24.40216064 188.68579102 26.14044189 C190.08280633 27.10698156 191.50146178 28.04269449 192.93579102 28.95294189 C209.46024541 39.90705602 220.56169503 57.40838543 224.65380859 76.79522705 C228.93816249 101.11349735 225.49077198 126.66207922 211.70141602 147.40606689 C206.03245816 155.0965136 199.67057307 161.85442696 191.68579102 167.14044189 C193.24426758 167.86747314 193.24426758 167.86747314 194.83422852 168.60919189 C203.27401473 172.62939273 210.76345926 176.74698099 217.68579102 183.14044189 C218.53786133 183.92419189 219.38993164 184.70794189 220.26782227 185.51544189 C237.51516171 202.06461317 245.76187121 223.23326281 246.72094727 246.90606689 C246.83115575 274.21183897 238.80231918 299.70997787 219.68579102 319.57794189 C197.24748416 340.90303043 167.11635704 348.7017221 136.9675293 349.70245361 C135.75054415 349.74400007 134.533559 349.78554653 133.27969551 349.82835197 C119.94300803 350.24748894 106.6098304 350.28791501 93.26762915 350.2747674 C89.78935016 350.27217132 86.31107332 350.27459953 82.83279419 350.27615356 C77.02955639 350.27794842 71.22633152 350.27563423 65.4230957 350.27081299 C58.71970164 350.2653082 52.0163377 350.26718806 45.31294429 350.27263939 C39.50942154 350.27716844 33.70590787 350.27782411 27.90238392 350.27520072 C24.45535289 350.27364533 21.00833611 350.27342531 17.561306 350.27673721 C13.74976149 350.28014781 9.93825146 350.27543017 6.12670898 350.26983643 C4.990345 350.27186066 3.85398102 350.27388489 2.68318176 350.27597046 C1.65229935 350.27315063 0.62141693 350.27033081 -0.44070435 350.26742554 C-1.33903551 350.26704851 -2.23736668 350.26667149 -3.16292 350.26628304 C-5.31420898 350.14044189 -5.31420898 350.14044189 -7.31420898 349.14044189 C-7.31420898 234.30044189 -7.31420898 119.46044189 -7.31420898 1.14044189 C-4.73669471 -0.14831524 -2.88721495 0.00873062 0 0 Z M62.68579102 212.14044189 C62.68579102 237.22044189 62.68579102 262.30044189 62.68579102 288.14044189 C78.98985352 288.20231689 78.98985352 288.20231689 95.62329102 288.26544189 C100.7162561 288.29275391 100.7162561 288.29275391 105.91210938 288.32061768 C108.65828291 288.32646884 111.4044582 288.33156291 114.15063477 288.33575439 C114.83758926 288.34098114 115.52454376 288.34620789 116.23231506 288.35159302 C134.01675877 288.47979754 151.8978878 288.57478772 165.48266602 275.65216064 C173.63071126 266.36281119 174.37762001 256.04322384 173.8605957 244.22589111 C173.14024304 235.63196314 168.76331786 228.10176363 162.68579102 222.14044189 C156.59003174 217.45848897 150.09707878 214.94775593 142.68579102 213.14044189 C142.13312561 212.96658463 141.58046021 212.79272736 141.01104736 212.61360168 C137.76224893 211.95251295 134.55514677 212.00989561 131.25512695 212.0269165 C130.5013187 212.02679597 129.74751045 212.02667543 128.97085953 212.02655125 C126.53726473 212.02729604 124.10374707 212.03490452 121.67016602 212.04278564 C120.16512082 212.04425641 118.66007511 212.04527629 117.1550293 212.0458374 C111.58194206 212.05107473 106.00886577 212.06503597 100.43579102 212.07794189 C87.97829102 212.09856689 75.52079102 212.11919189 62.68579102 212.14044189 Z " fill="#44AFEE" transform="translate(513.314208984375,291.85955810546875)"/>
<path d="M0 0 C0.59425781 0.56074219 1.18851563 1.12148438 1.80078125 1.69921875 C1.80078125 2.35921875 1.80078125 3.01921875 1.80078125 3.69921875 C2.46078125 3.69921875 3.12078125 3.69921875 3.80078125 3.69921875 C19.85903115 20.60780367 30.80078125 45.07493696 30.80078125 68.69921875 C23.18996274 70.24967141 15.57341851 71.77055818 7.95324707 73.27435303 C6.46090021 73.56892078 4.96863701 73.8639126 3.47644043 74.15924072 C-1.51675491 75.14675254 -6.51187714 76.12361335 -11.50942993 77.08883667 C-13.17600963 77.41211187 -14.84201145 77.73838073 -16.50741577 78.06765747 C-18.8680353 78.53369659 -21.23052384 78.98879752 -23.59375 79.44140625 C-24.65790634 79.6550457 -24.65790634 79.6550457 -25.74356079 79.8730011 C-32.19416938 81.08627015 -32.19416938 81.08627015 -35.19921875 79.69921875 C-36.47265625 77.109375 -36.47265625 77.109375 -37.57421875 73.76171875 C-41.89869362 61.76097238 -47.5016408 53.20447903 -58.82421875 46.94921875 C-69.92265826 41.79150836 -83.21511239 39.83122748 -95.19921875 42.69921875 C-96.18921875 43.19421875 -96.18921875 43.19421875 -97.19921875 43.69921875 C-99.14828125 44.00859375 -99.14828125 44.00859375 -101.13671875 44.32421875 C-109.29507175 46.14011022 -116.23955071 50.49316538 -120.76171875 57.57421875 C-125.15594297 65.91944573 -126.44235886 74.44441159 -124.07421875 83.63671875 C-120.95991861 92.8678954 -116.63181459 96.91281881 -107.90634155 101.27783203 C-95.9291615 106.97919664 -83.04959591 110.79465097 -70.48181152 114.98059082 C-64.1144536 117.10136231 -57.75082408 119.23299407 -51.39453125 121.38671875 C-50.37998462 121.73044714 -50.37998462 121.73044714 -49.34494209 122.08111954 C-9.76544018 135.54699 -9.76544018 135.54699 3.80078125 148.69921875 C4.57679688 149.36566406 5.3528125 150.03210938 6.15234375 150.71875 C25.40391405 167.32395641 35.51027519 189.62560035 37.80078125 214.69921875 C39.92063629 244.88822579 31.64894159 274.64673158 11.80078125 297.69921875 C-8.54557008 320.9261467 -39.39771371 330.15274444 -69.30419922 332.30664062 C-104.73015449 334.36195136 -144.91387041 330.39838776 -172.72265625 305.9921875 C-173.53992188 305.23550781 -174.3571875 304.47882813 -175.19921875 303.69921875 C-176.03710938 302.95285156 -176.875 302.20648437 -177.73828125 301.4375 C-193.60268799 286.57996737 -206.33393352 262.53155631 -207.296875 240.4609375 C-207.26432292 238.54036458 -207.23177083 236.61979167 -207.19921875 234.69921875 C-207.85921875 234.36921875 -208.51921875 234.03921875 -209.19921875 233.69921875 C-208.86921875 232.70921875 -208.53921875 231.71921875 -208.19921875 230.69921875 C-201.55829042 228.56528754 -194.57620719 227.68236855 -187.703125 226.5703125 C-186.51500717 226.37574966 -185.32688934 226.18118683 -184.10276794 225.98072815 C-181.59929347 225.57155289 -179.09554887 225.16402731 -176.59155273 224.75805664 C-172.77711874 224.13921719 -168.96370818 223.51434999 -165.15039062 222.88867188 C-162.70969399 222.49052616 -160.26894062 222.09272813 -157.828125 221.6953125 C-156.69661514 221.50988388 -155.56510529 221.32445526 -154.39930725 221.13340759 C-148.34159946 220.15451571 -142.3046352 219.31662944 -136.19921875 218.69921875 C-135.85310547 220.36597656 -135.85310547 220.36597656 -135.5 222.06640625 C-132.57469699 235.63639225 -128.77271051 248.49743767 -116.4375 256.48828125 C-100.48862121 264.95265352 -80.73291378 266.98803624 -63.19921875 262.69921875 C-52.43605768 259.1030567 -42.88226696 253.97544212 -37.125 243.80078125 C-33.04590852 234.68749394 -32.73780534 223.92296374 -36.265625 214.60546875 C-37.5491871 211.98463902 -39.28047042 209.88262202 -41.19921875 207.69921875 C-41.19921875 207.03921875 -41.19921875 206.37921875 -41.19921875 205.69921875 C-41.73522705 205.44495117 -42.27123535 205.19068359 -42.82348633 204.92871094 C-44.57153659 204.02405765 -46.2779088 203.03773173 -47.95581055 202.00878906 C-57.02683484 196.48711853 -66.29358873 192.80417225 -76.32104492 189.37063599 C-79.07861357 188.42631072 -81.82985077 187.46523892 -84.58007812 186.49975586 C-88.3244687 185.18630498 -92.07073099 183.8784626 -95.81884766 182.57568359 C-157.90371423 160.96366129 -157.90371423 160.96366129 -176.19921875 142.69921875 C-177.35357422 141.56226563 -177.35357422 141.56226563 -178.53125 140.40234375 C-195.87473163 122.32021299 -201.58969021 97.81017413 -201.3515625 73.3359375 C-200.38944124 50.36837618 -192.84446542 29.34508926 -178.19921875 11.69921875 C-177.44898438 10.72275391 -177.44898438 10.72275391 -176.68359375 9.7265625 C-158.1106867 -13.70305301 -126.98906394 -23.35988471 -98.515625 -26.796875 C-63.01098832 -30.48727445 -28.09400151 -22.23926403 0 0 Z " fill="#45B0EF" transform="translate(453.19921875,316.30078125)"/>
<path d="M0 0 C1.44841422 0.14609459 2.89640716 0.29637007 4.34420776 0.44842529 C5.15060133 0.53166424 5.9569949 0.61490318 6.78782463 0.70066452 C9.2754639 1.03727377 11.2139506 1.68203414 13.4453125 2.828125 C14.57694824 3.39889771 14.57694824 3.39889771 15.73144531 3.98120117 C16.52131836 4.39990479 17.31119141 4.8186084 18.125 5.25 C18.9819043 5.69255127 19.83880859 6.13510254 20.72167969 6.59106445 C43.80478154 18.6341505 67.85749303 31.36886508 88 48 C88.88558594 48.72316406 89.77117187 49.44632813 90.68359375 50.19140625 C101.21341017 59.18790616 110.6341375 72.18617038 112.81640625 86.1796875 C113.62207543 98.55613738 111.77440368 109.91728801 106 121 C105.01 120.67 104.02 120.34 103 120 C102.07282815 117.65515247 101.32272716 115.41224991 100.625 113 C94.9142043 94.82520004 83.22571227 83.23436837 66.4375 74.375 C53.88181233 68.37129782 41.022836 64.61804602 27.28125 62.54296875 C24 62 24 62 22 61 C22.00368717 61.81408042 22.00737434 62.62816084 22.01117325 63.46691036 C22.09979444 83.34275721 22.1658404 103.21856967 22.20724869 123.09457302 C22.22780946 132.70675727 22.25580491 142.31880903 22.30175781 151.9309082 C22.34182537 160.31600305 22.36747985 168.70100187 22.37635398 177.08618981 C22.38153526 181.51959608 22.39357519 185.95272782 22.42292023 190.38604546 C22.45040549 194.57297651 22.45837945 198.75952431 22.45243073 202.94653702 C22.45351637 204.46973452 22.4612708 205.99294709 22.4768219 207.5160656 C22.66318493 226.73887752 18.74458716 243.55233291 5.14453125 257.8515625 C-6.36704399 269.384106 -19.97811486 273.65564783 -36.00927734 274.01123047 C-46.63987648 273.95125897 -55.53853946 270.82337291 -63.3984375 263.69921875 C-70.75590787 255.89312214 -72.56792996 247.14558045 -72.3671875 236.62890625 C-71.16773267 224.77471971 -64.32195683 216.44474751 -55.55078125 208.890625 C-53.01138702 207.00844 -50.53314424 205.61590923 -47.6875 204.25 C-46.80449219 203.82203125 -45.92148437 203.3940625 -45.01171875 202.953125 C-44.34785156 202.63859375 -43.68398438 202.3240625 -43 202 C-43 201.34 -43 200.68 -43 200 C-40.41472917 199.75649754 -37.82925671 199.52069269 -35.2421875 199.296875 C-33.16128638 199.10633466 -31.08250869 198.88980522 -29.0078125 198.640625 C-22.3506803 197.92917576 -16.18124703 198.17046786 -9.56640625 198.98046875 C-8.32558289 199.12566956 -8.32558289 199.12566956 -7.05969238 199.27380371 C-5.03921141 199.51094937 -3.01951756 199.75478526 -1 200 C-1.00261841 199.0899823 -1.00523682 198.1799646 -1.00793457 197.24237061 C-1.10479235 159.2776468 -0.81161455 121.31478296 -0.55461788 83.3512187 C-0.49298508 74.23801095 -0.43306286 65.12479216 -0.37324238 56.01157236 C-0.2506501 37.34103592 -0.12604124 18.67051346 0 0 Z " fill="#45B0EE" transform="translate(659,192)"/>
<path d="M0 0 C2.25892503 0.4458244 4.5205901 0.87501557 6.78295898 1.30297852 C15.82710376 3.04970071 24.59930423 5.29848472 33.40722656 7.98876953 C38.74796938 9.60217988 44.14339912 10.95057786 49.56811523 12.24829102 C54.17460713 13.40876506 58.18437068 14.94523193 62.36254883 17.21557617 C64.29295898 18.18206716 66.19153517 18.82771878 68.25756836 19.44555664 C72.9994237 20.95359567 77.41118466 23.02102912 81.89892578 25.15917969 C85.67712949 26.95812463 89.46896934 28.71390565 93.29272461 30.41430664 C94.16759521 30.80344238 95.04246582 31.19257813 95.94384766 31.59350586 C97.64578004 32.34819745 99.34899367 33.10000891 101.05371094 33.84838867 C105.90582561 36.0058652 110.5635263 38.3618445 115.17407227 40.99780273 C117.15253085 42.10916205 119.15765935 43.1346405 121.19506836 44.13305664 C121.19506836 44.79305664 121.19506836 45.45305664 121.19506836 46.13305664 C121.91952148 46.4127832 122.64397461 46.69250977 123.39038086 46.98071289 C134.09973328 51.38079501 145.60966864 58.36306773 153.75415039 66.73583984 C155.16863284 68.29319549 155.16863284 68.29319549 157.43725586 68.97680664 C161.25401608 70.57703472 164.1288084 73.03301958 167.32006836 75.63305664 C168.55112292 76.62353089 169.78286891 77.61314651 171.01538086 78.60180664 C171.55437012 79.03944336 172.09335937 79.47708008 172.64868164 79.92797852 C174.11122009 81.06771482 175.6522897 82.10453753 177.19506836 83.13305664 C177.19506836 83.79305664 177.19506836 84.45305664 177.19506836 85.13305664 C177.7403418 85.35993164 178.28561523 85.58680664 178.84741211 85.82055664 C181.88105498 87.51656996 184.24989084 89.76152416 186.75756836 92.13305664 C187.82099124 93.12565055 188.88480239 94.11782864 189.94897461 95.10961914 C190.4866748 95.61267578 191.024375 96.11573242 191.57836914 96.6340332 C193.13274225 98.0752671 194.70360228 99.49491798 196.28491211 100.90649414 C197.24526367 101.76500977 198.20561523 102.62352539 199.19506836 103.50805664 C200.06131836 104.27891602 200.92756836 105.04977539 201.82006836 105.84399414 C204.19251547 108.13059612 206.17936359 110.53144202 208.19506836 113.13305664 C209.09225586 114.03024414 209.09225586 114.03024414 210.00756836 114.94555664 C212.57878281 117.5167711 214.94181669 120.23092139 217.32397461 122.97680664 C219.73735905 125.75799289 222.17764179 128.51521912 224.61694336 131.27368164 C229.19506836 136.66771011 229.19506836 136.66771011 229.19506836 139.13305664 C230.18506836 139.46305664 231.17506836 139.79305664 232.19506836 140.13305664 C233.60004906 142.12059032 234.729746 144.19529856 235.91381836 146.32055664 C237.14834401 148.44644599 237.14834401 148.44644599 240.19506836 149.13305664 C241.37866211 150.96899414 241.37866211 150.96899414 242.63256836 153.50805664 C245.52429964 159.05295137 248.76513785 164.30229954 252.13256836 169.57055664 C263.29708992 187.11967706 272.43052023 205.27601899 281.23461914 224.09301758 C282.01984819 225.76088081 282.82187436 227.420827 283.62866211 229.07836914 C286.90493414 235.93168572 289.3467767 243.04582704 291.78540039 250.23046875 C292.21054932 251.47969116 292.21054932 251.47969116 292.64428711 252.75415039 C292.89525146 253.50108154 293.14621582 254.2480127 293.40478516 255.01757812 C294.15895715 257.15611338 294.15895715 257.15611338 295.23388672 259.18286133 C296.75520041 262.26953995 297.33386843 265.60425535 298.07006836 268.94555664 C299.27828984 274.28121133 300.56992595 279.55755702 302.07006836 284.82055664 C307.03447419 303.22037827 310.55903484 322.15112552 312.19506836 341.13305664 C312.3592537 342.51259865 312.52547456 343.89189941 312.69335938 345.27099609 C313.23038323 350.07732141 313.43077943 354.85507178 313.54663086 359.68774414 C313.57028214 360.57885391 313.59393341 361.46996368 313.61830139 362.38807678 C313.69152342 365.26129682 313.75702149 368.13459612 313.82006836 371.00805664 C313.84219391 371.99081573 313.86431946 372.97357483 313.88711548 373.9861145 C314.22906432 389.7435213 314.22487516 405.39683775 313.19506836 421.13305664 C313.1201416 422.42735596 313.1201416 422.42735596 313.04370117 423.74780273 C311.51748288 448.85263543 306.46726977 473.99911601 298.34301758 497.7722168 C297.32992666 500.7382333 296.34432585 503.71210848 295.36572266 506.68963623 C289.10661507 525.63828493 281.28598383 543.37740478 272.19506836 561.13305664 C271.71086426 562.0929248 271.22666016 563.05279297 270.7277832 564.04174805 C265.77747033 573.85204609 260.48867621 583.10826048 254.19506836 592.13305664 C252.91699992 594.04862439 251.64980976 595.97113808 250.3828125 597.89404297 C246.49496141 603.78474834 242.54620599 609.57214009 238.19506836 615.13305664 C236.99624023 616.70120117 236.99624023 616.70120117 235.77319336 618.30102539 C230.08974277 625.6894087 224.13811088 632.66590637 217.74853516 639.45214844 C215.81927797 641.53967566 213.93874035 643.66848535 212.05053711 645.79321289 C207.37947936 650.99352771 202.50938187 655.97128396 197.55615234 660.90234375 C196.12667119 662.32643156 194.70266325 663.75583708 193.27905273 665.18579102 C188.08160802 670.37600198 182.80916214 675.39567067 177.19506836 680.13305664 C176.24631836 680.93743164 175.29756836 681.74180664 174.32006836 682.57055664 C172.19506836 684.13305664 172.19506836 684.13305664 170.19506836 684.13305664 C170.19506836 684.79305664 170.19506836 685.45305664 170.19506836 686.13305664 C168.64819336 687.54321289 168.64819336 687.54321289 166.44506836 689.19555664 C165.63166992 689.81043945 164.81827148 690.42532227 163.98022461 691.05883789 C163.06112305 691.74333008 162.14202148 692.42782227 161.19506836 693.13305664 C159.64625977 694.29901367 159.64625977 694.29901367 158.06616211 695.48852539 C155.11353812 697.70933338 152.15535571 699.92248027 149.19506836 702.13305664 C148.52862305 702.64481445 147.86217773 703.15657227 147.17553711 703.68383789 C144.79049658 705.42910424 142.32179447 706.99734232 139.82006836 708.57055664 C136.77323451 710.49359159 133.73655175 712.41893367 130.75756836 714.44555664 C128.19506836 716.13305664 128.19506836 716.13305664 126.28881836 717.07446289 C123.40840271 718.53079244 120.78351019 720.3257613 118.09741211 722.10961914 C116.19506836 723.13305664 116.19506836 723.13305664 113.19506836 723.13305664 C113.19506836 723.79305664 113.19506836 724.45305664 113.19506836 725.13305664 C101.42015087 731.71902744 89.47456525 737.9633222 76.94897461 743.00024414 C74.35699102 744.06645016 71.84752978 745.23589998 69.32006836 746.44555664 C36.75533602 761.20577526 0.34699811 768.8680447 -35.15649414 771.77368164 C-38.74977916 771.9915011 -38.74977916 771.9915011 -41.80493164 773.13305664 C-44.30252279 773.29923257 -46.77712077 773.41466709 -49.27758789 773.48461914 C-50.39775803 773.52002808 -50.39775803 773.52002808 -51.54055786 773.55615234 C-53.9827119 773.63002808 -56.4249725 773.69511478 -58.86743164 773.75805664 C-59.70005524 773.78051453 -60.53267883 773.80297241 -61.39053345 773.82611084 C-74.81228454 774.17622804 -88.14406047 774.10677749 -101.55322266 773.31347656 C-103.99223447 773.17814886 -106.42650563 773.06867165 -108.8671875 772.97802734 C-120.09088217 772.52132329 -130.9459063 771.07072729 -141.99243164 769.07055664 C-142.85322327 768.91721863 -143.71401489 768.76388062 -144.60089111 768.605896 C-170.36843985 763.9909807 -195.25938121 757.30718836 -219.80493164 748.13305664 C-220.69712402 747.80337891 -221.58931641 747.47370117 -222.50854492 747.1340332 C-236.08535325 742.07515059 -248.96497341 735.82564908 -261.80493164 729.13305664 C-262.5089209 728.76728516 -263.21291016 728.40151367 -263.93823242 728.0246582 C-269.77501749 724.97873803 -275.33216678 721.79399335 -280.80493164 718.13305664 C-282.79001112 717.10375617 -284.78607415 716.09441735 -286.80493164 715.13305664 C-286.80493164 714.47305664 -286.80493164 713.81305664 -286.80493164 713.13305664 C-287.50618164 712.88555664 -288.20743164 712.63805664 -288.92993164 712.38305664 C-294.472762 709.9731304 -299.27673631 706.13737198 -304.17993164 702.63305664 C-304.77572021 702.20726318 -305.37150879 701.78146973 -305.98535156 701.34277344 C-312.74518277 696.48882085 -319.4022503 691.49951971 -326.03393555 686.47241211 C-327.62312254 685.27055384 -329.21944009 684.07813788 -330.81665039 682.88696289 C-331.6377832 682.26692383 -332.45891602 681.64688477 -333.30493164 681.00805664 C-333.99586914 680.48985352 -334.68680664 679.97165039 -335.39868164 679.43774414 C-335.86274414 679.00719727 -336.32680664 678.57665039 -336.80493164 678.13305664 C-336.80493164 677.47305664 -336.80493164 676.81305664 -336.80493164 676.13305664 C-337.36051758 675.90618164 -337.91610352 675.67930664 -338.48852539 675.44555664 C-341.47024207 673.7560848 -343.49202334 671.59803539 -345.86743164 669.13305664 C-348.4598712 666.45095376 -350.69676926 664.20516489 -353.80493164 662.13305664 C-353.80493164 661.47305664 -353.80493164 660.81305664 -353.80493164 660.13305664 C-354.79493164 659.80305664 -355.78493164 659.47305664 -356.80493164 659.13305664 C-356.80493164 658.47305664 -356.80493164 657.81305664 -356.80493164 657.13305664 C-357.36180664 656.92680664 -357.91868164 656.72055664 -358.49243164 656.50805664 C-361.10015467 654.95751862 -362.66295722 653.05058937 -364.53540039 650.69165039 C-365.90295306 648.95877507 -365.90295306 648.95877507 -368.05493164 646.88305664 C-375.89382547 639.04416281 -382.75182274 630.51496854 -389.52661133 621.7668457 C-391.31252165 619.48431861 -393.15490582 617.24911754 -394.99243164 615.00805664 C-399.31033642 609.63054333 -403.04098034 603.9049736 -406.80493164 598.13305664 C-407.8042484 596.67425504 -408.8041959 595.21588519 -409.80493164 593.75805664 C-412.42449227 589.8287157 -414.81946532 585.78377626 -417.17993164 581.69555664 C-417.53829102 581.0795459 -417.89665039 580.46353516 -418.26586914 579.82885742 C-420.80493164 575.37434006 -420.80493164 575.37434006 -420.80493164 573.13305664 C-421.46493164 573.13305664 -422.12493164 573.13305664 -422.80493164 573.13305664 C-431.60624046 555.75170095 -440.31587919 538.39853733 -447.07495117 520.10327148 C-447.558266 518.79880639 -448.04874081 517.49696991 -448.54663086 516.19799805 C-464.57469331 474.29860916 -470.02885063 429.64492581 -470.05493164 385.07055664 C-470.05593872 383.87429657 -470.0569458 382.6780365 -470.0579834 381.44552612 C-470.04739155 362.81275924 -469.44820117 344.59527766 -466.80493164 326.13305664 C-466.61205566 324.69349609 -466.61205566 324.69349609 -466.4152832 323.22485352 C-463.80823092 304.23914449 -458.71288423 285.6322196 -453.80493164 267.13305664 C-453.4762207 265.88540527 -453.14750977 264.63775391 -452.80883789 263.35229492 C-450.703126 255.64720759 -448.00089163 248.44482479 -444.80493164 241.13305664 C-443.95299817 239.07101651 -443.10541014 237.00717621 -442.26196289 234.94165039 C-436.75356357 221.61293989 -430.92071427 208.68159351 -423.80493164 196.13305664 C-423.31798828 195.27292969 -422.83104492 194.41280273 -422.3293457 193.52661133 C-412.78606466 176.79425926 -402.52079595 160.43910426 -390.80493164 145.13305664 C-390.36721436 144.5573291 -389.92949707 143.98160156 -389.47851562 143.38842773 C-388.23729554 141.75841757 -386.99073668 140.13264502 -385.74243164 138.50805664 C-385.33444336 137.97438477 -384.92645508 137.44071289 -384.50610352 136.89086914 C-380.2239232 131.31659334 -375.83444421 126.04694823 -370.80493164 121.13305664 C-369.45980414 119.79068555 -368.11619714 118.44679 -366.77368164 117.10180664 C-363.79451497 114.12263997 -360.81534831 111.14347331 -357.83618164 108.16430664 C-356.78684448 107.11472778 -356.78684448 107.11472778 -355.71630859 106.04394531 C-354.14677158 104.47480926 -352.57567722 102.9072311 -351.00415039 101.34008789 C-349.61073351 99.94172104 -348.22666141 98.53392696 -346.85571289 97.11352539 C-346.28208008 96.5218457 -345.70844727 95.93016602 -345.11743164 95.32055664 C-344.53606445 94.71598633 -343.95469727 94.11141602 -343.35571289 93.48852539 C-341.80493164 92.13305664 -341.80493164 92.13305664 -339.80493164 92.13305664 C-339.80493164 91.47305664 -339.80493164 90.81305664 -339.80493164 90.13305664 C-338.30102539 88.61743164 -338.30102539 88.61743164 -336.24243164 86.88305664 C-335.15381836 85.96073242 -335.15381836 85.96073242 -334.04321289 85.01977539 C-333.30458008 84.3971582 -332.56594727 83.77454102 -331.80493164 83.13305664 C-331.13848633 82.54137695 -330.47204102 81.94969727 -329.78540039 81.34008789 C-329.1730957 80.79739258 -328.56079102 80.25469727 -327.92993164 79.69555664 C-327.09848633 78.95499023 -327.09848633 78.95499023 -326.25024414 78.19946289 C-324.80493164 77.13305664 -324.80493164 77.13305664 -322.80493164 77.13305664 C-322.80493164 76.47305664 -322.80493164 75.81305664 -322.80493164 75.13305664 C-321.83555664 74.59680664 -320.86618164 74.06055664 -319.86743164 73.50805664 C-316.2475702 71.4374959 -312.78952212 69.17582332 -309.33618164 66.84008789 C-307.49061451 65.59546932 -305.63502136 64.36567992 -303.77368164 63.14477539 C-297.53380214 59.12567109 -297.53380214 59.12567109 -291.74243164 54.50805664 C-288.36096063 51.77410135 -284.86250535 49.87441268 -281.02368164 47.85180664 C-278.74514169 46.63511055 -276.50623872 45.39688304 -274.27368164 44.10180664 C-264.11853682 38.22451822 -253.68352622 33.10603139 -243.04125977 28.17114258 C-241.26566772 27.34692671 -239.4952915 26.51147617 -237.72680664 25.67211914 C-235.10468724 24.44351602 -232.4652692 23.27675316 -229.80493164 22.13305664 C-229.16990723 21.85816406 -228.53488281 21.58327148 -227.88061523 21.30004883 C-205.82316096 11.84614107 -182.90679072 4.97157842 -159.3190918 0.60766602 C-157.14217854 0.19672026 -154.98010937 -0.25063654 -152.81665039 -0.72631836 C-103.79494358 -11.04667769 -48.96213032 -9.7012943 0 0 Z M-132.80493164 -0.86694336 C-133.4694635 -0.78208679 -134.13399536 -0.69723022 -134.81866455 -0.60980225 C-153.89385756 1.84417954 -172.36945383 5.55618953 -190.80493164 11.13305664 C-191.78171875 11.42470703 -192.75850586 11.71635742 -193.76489258 12.0168457 C-213.38778116 17.91623612 -232.06525028 25.39911052 -250.55493164 34.19555664 C-251.93358398 34.84621094 -251.93358398 34.84621094 -253.34008789 35.51000977 C-254.23083008 35.9334668 -255.12157227 36.35692383 -256.03930664 36.79321289 C-256.835625 37.17098877 -257.63194336 37.54876465 -258.45239258 37.93798828 C-260.98283082 39.2234278 -263.37955053 40.6597096 -265.80493164 42.13305664 C-267.54713755 43.11524543 -269.29343528 44.09020248 -271.04321289 45.05883789 C-272.02870117 45.60862305 -273.01418945 46.1584082 -274.02954102 46.72485352 C-276.07421363 47.86423149 -278.12106628 48.9997068 -280.17016602 50.13110352 C-286.06916765 53.43223863 -291.49821282 56.95301653 -296.80493164 61.13305664 C-301.88376694 64.81348343 -307.04682158 68.31139086 -312.36743164 71.63305664 C-321.24302953 77.25633754 -328.86168423 83.9009641 -336.49633789 91.07055664 C-338.77715037 93.20699215 -341.11040758 95.26135076 -343.48461914 97.29321289 C-348.49337155 101.65349203 -353.16742193 106.34547002 -357.85058594 111.04833984 C-359.36485744 112.56797332 -360.88440594 114.08218181 -362.40454102 115.59594727 C-367.74652086 120.93356538 -372.95559287 126.33784975 -377.80493164 132.13305664 C-378.28824951 132.70967041 -378.77156738 133.28628418 -379.26953125 133.88037109 C-440.9295387 208.34872344 -468.91071734 299.88493022 -466.85961914 422.48803711 C-462.78476907 464.83075681 -451.73975892 506.53547842 -433.80493164 545.13305664 C-433.12037037 546.64824489 -432.43677078 548.163868 -431.75415039 549.67993164 C-427.60540736 558.79913972 -422.98482217 567.55107541 -417.80493164 576.13305664 C-417.09892822 577.30892334 -417.09892822 577.30892334 -416.37866211 578.50854492 C-407.17627104 593.77806341 -397.58432509 608.71540199 -386.09008789 622.37915039 C-383.87244945 625.05168902 -381.741267 627.7746753 -379.61865234 630.52246094 C-375.77615199 635.49169481 -371.9633842 640.25015927 -367.39477539 644.58227539 C-365.68754608 646.24755803 -364.16108085 648.00297448 -362.61743164 649.82055664 C-355.54812197 658.00439712 -347.56281808 666.75551883 -338.80493164 673.13305664 C-338.14493164 673.13305664 -337.48493164 673.13305664 -336.80493164 673.13305664 C-336.80493164 673.79305664 -336.80493164 674.45305664 -336.80493164 675.13305664 C-335.13994623 676.73727227 -335.13994623 676.73727227 -332.86743164 678.44555664 C-331.50811523 679.50516602 -331.50811523 679.50516602 -330.12133789 680.58618164 C-329.01601121 681.43532494 -327.91052869 682.2842654 -326.80493164 683.13305664 C-325.43898035 684.19026321 -324.07309916 685.24756034 -322.70727539 686.30493164 C-311.09712383 696.96878194 -311.09712383 696.96878194 -297.80493164 703.13305664 C-297.80493164 703.79305664 -297.80493164 704.45305664 -297.80493164 705.13305664 C-295.92862301 706.49008056 -295.92862301 706.49008056 -293.49243164 707.82055664 C-289.93969822 709.87532757 -286.47534259 711.99071778 -283.05493164 714.25805664 C-262.7342868 727.22320046 -240.6069837 738.2995193 -217.80493164 746.13305664 C-216.75724609 746.49898926 -215.70956055 746.86492188 -214.63012695 747.24194336 C-134.83684238 775.0186446 -46.4305277 780.23949415 35.19506836 756.13305664 C36.33177979 755.80241211 36.33177979 755.80241211 37.49145508 755.46508789 C50.08221316 751.77589795 62.16644405 747.18798539 74.03491211 741.58618164 C76.93464842 740.25280475 79.85247071 739.05523707 82.82006836 737.88305664 C114.41117405 724.82374129 146.96439133 704.21284972 172.08569336 681.02758789 C174.39822709 678.95059 176.81331892 677.05302181 179.25756836 675.13305664 C186.5155681 669.26095501 192.94797607 662.54322746 199.47631836 655.88452148 C202.39599802 652.90926837 205.33928871 649.96072674 208.33569336 647.06274414 C214.10882624 641.43928507 219.16831416 635.4230333 224.19506836 629.13305664 C225.71488715 627.29888217 227.23571611 625.46554426 228.75756836 623.63305664 C236.86217805 615.15056451 236.86217805 615.15056451 241.19506836 605.13305664 C241.85506836 605.13305664 242.51506836 605.13305664 243.19506836 605.13305664 C244.64529251 603.23305995 244.64529251 603.23305995 246.13256836 600.69555664 C246.74616211 599.70040039 247.35975586 598.70524414 247.99194336 597.67993164 C248.33676758 597.11983398 248.6815918 596.55973633 249.03686523 595.98266602 C250.31817795 593.93645499 251.63533543 591.91663427 252.96069336 589.89868164 C253.4428833 589.16319092 253.92507324 588.4277002 254.421875 587.66992188 C255.37415181 586.21978081 256.32894857 584.77129045 257.28662109 583.32470703 C259.86243529 579.38154821 262.14056957 575.4197232 264.19189453 571.18066406 C265.25485476 569.01102488 266.38129547 566.8850446 267.52709961 564.75805664 C272.56202586 555.3834411 277.20014436 545.98501716 281.31054688 536.16821289 C281.94608602 534.70592906 282.61176873 533.25660949 283.29638672 531.81665039 C287.24818681 523.47422346 290.22370698 514.87972089 293.13256836 506.13305664 C293.39552704 505.34636597 293.65848572 504.55967529 293.92941284 503.74914551 C298.41311346 490.26240866 301.98020768 476.78899465 304.6706543 462.82006836 C305.11363667 460.55029926 305.59511641 458.29763196 306.10913086 456.04321289 C319.96286425 391.60236211 312.92862461 314.56837825 290.19506836 253.13305664 C289.85668945 252.19526367 289.51831055 251.2574707 289.16967773 250.29125977 C278.85600678 221.80674296 265.50490246 194.66293982 249.19506836 169.13305664 C248.58405273 168.1752832 247.97303711 167.21750977 247.34350586 166.23071289 C242.13010042 158.23896999 236.43409003 150.63884822 230.65161133 143.05541992 C229.32884432 141.3096158 228.02589251 139.55135168 226.73022461 137.78540039 C219.88048837 128.58783443 212.17826135 120.348657 204.19506836 112.13305664 C203.49994141 111.41601562 202.80481445 110.69897461 202.08862305 109.96020508 C200.02820331 107.84284145 197.95813557 105.73556619 195.88256836 103.63305664 C195.24230713 102.97966309 194.6020459 102.32626953 193.94238281 101.65307617 C193.34901123 101.05865723 192.75563965 100.46423828 192.14428711 99.85180664 C191.62181396 99.32522461 191.09934082 98.79864258 190.56103516 98.25610352 C189.23231246 96.92136399 189.23231246 96.92136399 187.19506836 97.13305664 C186.86506836 96.14305664 186.53506836 95.15305664 186.19506836 94.13305664 C184.50355318 92.6385196 184.50355318 92.6385196 182.44506836 91.25805664 C179.02244218 88.79255424 176.18094456 86.11893284 173.19506836 83.13305664 C165.28771772 76.56995561 156.85414591 70.56124031 147.98413086 65.37133789 C146.19506836 64.13305664 146.19506836 64.13305664 144.36694336 62.21899414 C141.7407148 59.6966811 139.01554355 58.18954024 135.82006836 56.44555664 C130.84574549 53.69319356 126.0534783 50.78006488 121.32006836 47.63305664 C113.29876416 42.34880947 104.69802866 37.70714509 95.75756836 34.16821289 C93.55061544 33.27668465 91.45659783 32.30253364 89.32397461 31.25024414 C58.72790424 16.16251454 25.64042192 7.27316045 -7.80493164 1.13305664 C-8.74715576 0.95323242 -9.68937988 0.7734082 -10.66015625 0.58813477 C-19.71499369 -1.04956643 -28.82584403 -1.80155518 -37.99243164 -2.49194336 C-38.85408936 -2.55698059 -39.71574707 -2.62201782 -40.60351562 -2.68902588 C-71.43201783 -4.95342154 -102.12440695 -4.82310612 -132.80493164 -0.86694336 Z " fill="#54636C" transform="translate(590.804931640625,122.866943359375)"/>
<path d="M0 0 C0.33 0 0.66 0 1 0 C1.03758423 0.92280762 1.03758423 0.92280762 1.07592773 1.86425781 C1.19218487 4.65970156 1.31477642 7.45483298 1.4375 10.25 C1.47681641 11.21808594 1.51613281 12.18617188 1.55664062 13.18359375 C1.59853516 14.11816406 1.64042969 15.05273438 1.68359375 16.015625 C1.73858032 17.30388184 1.73858032 17.30388184 1.79467773 18.61816406 C1.92827321 20.95651509 1.92827321 20.95651509 2.52294922 22.99145508 C3.10640206 25.44798863 3.04642684 27.59846407 2.94921875 30.12109375 C2.91159424 31.12720703 2.87396973 32.13332031 2.83520508 33.16992188 C2.7864624 34.24822266 2.73771973 35.32652344 2.6875 36.4375 C2.63682373 37.56349609 2.58614746 38.68949219 2.53393555 39.84960938 C2.37078072 43.2340568 2.19074946 46.61700223 2 50 C1.92507324 51.33442139 1.92507324 51.33442139 1.84863281 52.69580078 C0.28800552 77.78015091 -4.73310976 102.88160087 -12.85205078 126.63916016 C-13.8651417 129.60517666 -14.85074251 132.57905184 -15.8293457 135.55657959 C-22.08845329 154.50522829 -29.90908453 172.24434814 -39 190 C-39.4842041 190.95986816 -39.9684082 191.91973633 -40.46728516 192.90869141 C-45.41759803 202.71898945 -50.70639215 211.97520384 -57 221 C-58.27806844 222.91556775 -59.5452586 224.83808144 -60.81225586 226.76098633 C-64.70010695 232.6516917 -68.64886237 238.43908345 -73 244 C-73.79921875 245.04542969 -74.5984375 246.09085938 -75.421875 247.16796875 C-81.10532559 254.55635206 -87.05695748 261.53284973 -93.4465332 268.3190918 C-95.37579039 270.40661902 -97.256328 272.53542871 -99.14453125 274.66015625 C-103.815589 279.86047107 -108.68568649 284.83822732 -113.63891602 289.76928711 C-115.06839717 291.19337492 -116.49240511 292.62278044 -117.91601562 294.05273438 C-123.11346034 299.24294534 -128.38590622 304.26261403 -134 309 C-135.423125 310.2065625 -135.423125 310.2065625 -136.875 311.4375 C-139 313 -139 313 -141 313 C-141 313.66 -141 314.32 -141 315 C-142.546875 316.41015625 -142.546875 316.41015625 -144.75 318.0625 C-145.56339844 318.67738281 -146.37679687 319.29226563 -147.21484375 319.92578125 C-148.13394531 320.61027344 -149.05304687 321.29476563 -150 322 C-151.03253906 322.77730469 -152.06507813 323.55460937 -153.12890625 324.35546875 C-156.08153024 326.57627673 -159.03971265 328.78942363 -162 331 C-162.66644531 331.51175781 -163.33289063 332.02351563 -164.01953125 332.55078125 C-166.40457178 334.2960476 -168.87327389 335.86428568 -171.375 337.4375 C-174.42183385 339.36053495 -177.45851661 341.28587703 -180.4375 343.3125 C-183 345 -183 345 -184.90625 345.94140625 C-187.78666565 347.3977358 -190.41155816 349.19270465 -193.09765625 350.9765625 C-195 352 -195 352 -198 352 C-198 352.66 -198 353.32 -198 354 C-209.77491749 360.5859708 -221.72050311 366.83026556 -234.24609375 371.8671875 C-236.83807734 372.93339351 -239.34753858 374.10284334 -241.875 375.3125 C-274.43973234 390.07271862 -310.84807024 397.73498806 -346.3515625 400.640625 C-349.94484752 400.85844446 -349.94484752 400.85844446 -353 402 C-355.49759115 402.16617593 -357.97218913 402.28161045 -360.47265625 402.3515625 C-361.59282639 402.38697144 -361.59282639 402.38697144 -362.73562622 402.4230957 C-365.17778026 402.49697144 -367.62004086 402.56205814 -370.0625 402.625 C-370.8951236 402.64745789 -371.72774719 402.66991577 -372.58560181 402.6930542 C-386.0073529 403.0431714 -399.33912883 402.97372085 -412.74829102 402.18041992 C-415.18730283 402.04509221 -417.62157399 401.93561501 -420.06225586 401.8449707 C-431.28595053 401.38826665 -442.14097466 399.93767065 -453.1875 397.9375 C-454.47868744 397.70749298 -454.47868744 397.70749298 -455.79595947 397.47283936 C-481.56350821 392.85792406 -506.45444957 386.17413172 -531 377 C-531.89219238 376.67032227 -532.78438477 376.34064453 -533.70361328 376.00097656 C-547.28042161 370.94209394 -560.16004177 364.69259244 -573 358 C-573.70398926 357.63422852 -574.40797852 357.26845703 -575.13330078 356.89160156 C-580.97008585 353.84568139 -586.52723514 350.66093671 -592 347 C-593.98507948 345.97069953 -595.98114251 344.96136071 -598 344 C-598 343.34 -598 342.68 -598 342 C-598.70125 341.7525 -599.4025 341.505 -600.125 341.25 C-605.66783036 338.84007376 -610.47180467 335.00431534 -615.375 331.5 C-616.26868286 330.86130981 -616.26868286 330.86130981 -617.18041992 330.2097168 C-623.94025113 325.35576421 -630.59731866 320.36646307 -637.22900391 315.33935547 C-638.8181909 314.1374972 -640.41450845 312.94508124 -642.01171875 311.75390625 C-642.83285156 311.13386719 -643.65398437 310.51382812 -644.5 309.875 C-645.53640625 309.09769531 -645.53640625 309.09769531 -646.59375 308.3046875 C-647.28984375 307.65886719 -647.28984375 307.65886719 -648 307 C-648 306.34 -648 305.68 -648 305 C-648.83337891 304.6596875 -648.83337891 304.6596875 -649.68359375 304.3125 C-652.66531043 302.62302816 -654.6870917 300.46497875 -657.0625 298 C-659.65493955 295.31789712 -661.89183762 293.07210825 -665 291 C-665 290.34 -665 289.68 -665 289 C-665.99 288.67 -666.98 288.34 -668 288 C-668 287.34 -668 286.68 -668 286 C-668.8353125 285.690625 -668.8353125 285.690625 -669.6875 285.375 C-672.29522303 283.82446198 -673.85802558 281.91753273 -675.73046875 279.55859375 C-677.09802142 277.82571843 -677.09802142 277.82571843 -679.25 275.75 C-687.08889383 267.91110617 -693.94689109 259.3819119 -700.72167969 250.63378906 C-702.50759001 248.35126197 -704.34997418 246.1160609 -706.1875 243.875 C-710.50540478 238.49748669 -714.23604869 232.77191696 -718 227 C-718.99931676 225.5411984 -719.99926426 224.08282855 -721 222.625 C-723.61956063 218.69565905 -726.01453368 214.65071961 -728.375 210.5625 C-728.73335937 209.94648926 -729.09171875 209.33047852 -729.4609375 208.69580078 C-732 204.24128342 -732 204.24128342 -732 202 C-732.66 202 -733.32 202 -734 202 C-736.69385431 196.68001398 -739.35471898 191.34429432 -742 186 C-742.43828125 185.11763672 -742.8765625 184.23527344 -743.328125 183.32617188 C-744.68811733 180.57687703 -746.03313007 177.82067901 -747.375 175.0625 C-747.80345215 174.19987549 -748.2319043 173.33725098 -748.67333984 172.44848633 C-751.30276946 167.00046326 -752.90651102 161.95410759 -754 156 C-750.61330986 158.25779342 -750.17743621 159.33426139 -748.65234375 162.99609375 C-748.21720459 164.02033447 -747.78206543 165.0445752 -747.33374023 166.09985352 C-746.87298096 167.20127686 -746.41222168 168.3027002 -745.9375 169.4375 C-738.88319143 185.85533303 -730.79752437 201.27567372 -721.10351562 216.28076172 C-720.11988752 217.81321949 -719.15981316 219.36073738 -718.203125 220.91015625 C-711.59648067 231.59089791 -704.024046 241.66541682 -696.09765625 251.3984375 C-694.47681444 253.40864355 -692.88528925 255.4321048 -691.30859375 257.4765625 C-685.41160735 265.16678555 -685.41160735 265.16678555 -678.8125 272.25 C-677.884375 273.1575 -676.95625 274.065 -676 275 C-676 275.66 -676 276.32 -676 277 C-675.01 277.33 -674.02 277.66 -673 278 C-671.45703125 279.56640625 -671.45703125 279.56640625 -669.8125 281.5625 C-663.76517516 288.65988334 -657.35023034 294.70810899 -649.90625 300.3359375 C-648.96265625 301.15964844 -648.96265625 301.15964844 -648 302 C-648 302.66 -648 303.32 -648 304 C-647.44570313 304.24105469 -646.89140625 304.48210937 -646.3203125 304.73046875 C-643.48977565 306.27916315 -641.31025556 308.19292572 -638.875 310.3125 C-633.62858329 314.79225559 -628.15860977 318.90519265 -622.5625 322.9375 C-621.79341309 323.49284424 -621.02432617 324.04818848 -620.23193359 324.62036133 C-617.19158742 326.79617777 -614.20459152 328.88177401 -610.96484375 330.75390625 C-610.31644531 331.16511719 -609.66804687 331.57632812 -609 332 C-609 332.66 -609 333.32 -609 334 C-608.21625 334.185625 -607.4325 334.37125 -606.625 334.5625 C-603.38731771 335.8464085 -601.28312073 337.10884488 -598.5 339.125 C-588.4444279 346.35197965 -577.37278189 351.92679772 -566.4375 357.6875 C-565.40939209 358.23422363 -564.38128418 358.78094727 -563.32202148 359.34423828 C-557.07752287 362.60253925 -550.80242129 365.34752483 -544.19921875 367.7956543 C-541.11634803 368.95620079 -538.09457768 370.2121432 -535.06640625 371.5078125 C-455.28200027 405.00079105 -358.75932834 408.44126197 -276 384 C-275.24219238 383.77957031 -274.48438477 383.55914063 -273.70361328 383.33203125 C-261.1128552 379.64284131 -249.0286243 375.05492875 -237.16015625 369.453125 C-234.26041994 368.11974811 -231.34259765 366.92218043 -228.375 365.75 C-196.78389431 352.69068465 -164.23067703 332.07979308 -139.109375 308.89453125 C-136.79684126 306.81753336 -134.38174944 304.91996517 -131.9375 303 C-125.95460135 298.18138702 -120.64088883 292.75208448 -115.30639648 287.23242188 C-114.64712158 286.55630859 -113.98784668 285.88019531 -113.30859375 285.18359375 C-112.71876709 284.57056396 -112.12894043 283.95753418 -111.52124023 283.32592773 C-110 282 -110 282 -108 282 C-107.75378906 281.42378906 -107.50757813 280.84757812 -107.25390625 280.25390625 C-105.79837901 277.6375847 -104.11391269 275.99108164 -101.9375 273.9375 C-96.84187267 268.95601472 -92.44348497 263.56013197 -88 258 C-86.48018121 256.16582553 -84.95935225 254.33248762 -83.4375 252.5 C-76.03008692 243.71562978 -76.03008692 243.71562978 -70 234 C-69.34 234 -68.68 234 -68 234 C-67.72833008 233.2673291 -67.45666016 232.5346582 -67.17675781 231.77978516 C-66.04958216 229.117125 -64.77571935 226.92190908 -63.171875 224.5234375 C-62.34780151 223.27904907 -62.34780151 223.27904907 -61.50708008 222.00952148 C-60.92724365 221.14012939 -60.34740723 220.2707373 -59.75 219.375 C-55.15864681 212.39352486 -50.82533077 205.43376133 -47 198 C-46.22594679 196.55882607 -45.44969188 195.11883363 -44.671875 193.6796875 C-39.62509683 184.29520636 -35.0002304 174.86463371 -30.88452148 165.03515625 C-30.24898234 163.57287242 -29.58329963 162.12355285 -28.89868164 160.68359375 C-24.94688155 152.34116682 -21.97136138 143.74666425 -19.0625 135 C-18.79954132 134.21330933 -18.53658264 133.42661865 -18.26565552 132.61608887 C-13.7819549 119.12935202 -10.21486068 105.65593801 -7.52441406 91.68701172 C-7.08143169 89.41724262 -6.59995195 87.16457532 -6.0859375 84.91015625 C-0.13089699 57.21019509 -0.38257824 28.18819551 0 0 Z " fill="#51595E" transform="translate(902,494)"/>
<path d="M0 0 C4.44097122 0.21147482 7.68530535 1.80278464 11.59179688 3.79638672 C16.31404721 6.15655441 21.13499562 8.30917451 25.9375 10.5 C26.97068359 10.97308594 28.00386719 11.44617188 29.06835938 11.93359375 C33.67924319 14.04192694 38.29463227 16.1348799 42.9375 18.171875 C46.06927579 19.55827377 49.08609352 21.0491963 52.0625 22.75 C52.81660156 23.17796875 53.57070313 23.6059375 54.34765625 24.046875 C54.89292969 24.36140625 55.43820312 24.6759375 56 25 C56 25.66 56 26.32 56 27 C56.72445312 27.27972656 57.44890625 27.55945313 58.1953125 27.84765625 C68.90466492 32.24773837 80.41460028 39.23001109 88.55908203 47.6027832 C89.97356448 49.16013885 89.97356448 49.16013885 92.2421875 49.84375 C96.05894772 51.44397808 98.93374005 53.89996294 102.125 56.5 C103.35605456 57.49047425 104.58780055 58.48008987 105.8203125 59.46875 C106.35930176 59.90638672 106.89829102 60.34402344 107.45361328 60.79492188 C108.91615173 61.93465818 110.45722134 62.97148089 112 64 C112 64.66 112 65.32 112 66 C112.54527344 66.226875 113.09054687 66.45375 113.65234375 66.6875 C116.68598662 68.38351332 119.05482248 70.62846752 121.5625 73 C122.62592288 73.99259391 123.68973403 74.984772 124.75390625 75.9765625 C125.29160645 76.47961914 125.82930664 76.98267578 126.38330078 77.50097656 C127.93767389 78.94221046 129.50853392 80.36186134 131.08984375 81.7734375 C132.53037109 83.06121094 132.53037109 83.06121094 134 84.375 C134.86625 85.14585937 135.7325 85.91671875 136.625 86.7109375 C138.99744711 88.99753948 140.98429523 91.39838538 143 94 C143.598125 94.598125 144.19625 95.19625 144.8125 95.8125 C147.38371445 98.38371445 149.74674833 101.09786475 152.12890625 103.84375 C154.5422907 106.62493625 156.98257343 109.38216248 159.421875 112.140625 C164 117.53465347 164 117.53465347 164 120 C164.99 120.33 165.98 120.66 167 121 C168.4049807 122.98753368 169.53467764 125.06224191 170.71875 127.1875 C171.95327565 129.31338935 171.95327565 129.31338935 175 130 C176.18359375 131.8359375 176.18359375 131.8359375 177.4375 134.375 C180.32923128 139.91989473 183.57006949 145.1692429 186.9375 150.4375 C198.10202156 167.98662041 207.23545187 186.14296235 216.03955078 204.95996094 C216.82477983 206.62782417 217.626806 208.28777036 218.43359375 209.9453125 C221.70986578 216.79862908 224.15170835 223.91277039 226.59033203 231.09741211 C226.87376465 231.93022705 227.15719727 232.76304199 227.44921875 233.62109375 C227.70018311 234.3680249 227.95114746 235.11495605 228.2097168 235.88452148 C228.96388879 238.02305674 228.96388879 238.02305674 230.03881836 240.04980469 C231.56013205 243.13648331 232.13880007 246.47119871 232.875 249.8125 C234.08322148 255.14815468 235.37485759 260.42450038 236.875 265.6875 C241.83940583 284.08732163 245.36396648 303.01806888 247 322 C247.16342363 323.37490657 247.32891593 324.74956829 247.49609375 326.12402344 C248.04198136 331.0071905 248.25301656 335.86761777 248.38671875 340.77734375 C248.42500542 342.1161837 248.42500542 342.1161837 248.46406555 343.48207092 C248.51566879 345.35005076 248.56513864 347.21809068 248.61254883 349.08618164 C248.68794224 351.95432368 248.77841716 354.8217601 248.86914062 357.68945312 C248.91759193 359.51039228 248.96515042 361.33135546 249.01171875 363.15234375 C249.04077805 364.01061264 249.06983734 364.86888153 249.09977722 365.75315857 C249.14434087 367.83522779 249.08172724 369.91905819 249 372 C248.34 372.66 247.68 373.32 247 374 C246.97421875 372.91074219 246.9484375 371.82148437 246.921875 370.69921875 C245.477519 324.66277843 240.06015439 277.40107367 224 234 C223.66162109 233.06220703 223.32324219 232.12441406 222.97460938 231.15820312 C212.66093842 202.67368631 199.3098341 175.52988318 183 150 C182.38898438 149.04222656 181.77796875 148.08445312 181.1484375 147.09765625 C175.93503206 139.10591335 170.23902167 131.50579158 164.45654297 123.92236328 C163.13377596 122.17655916 161.83082415 120.41829504 160.53515625 118.65234375 C147.74892618 101.48347908 131.40965748 82.80854067 113.7890625 70.44921875 C112.90347656 69.73185547 112.90347656 69.73185547 112 69 C112 68.34 112 67.68 112 67 C111.42507813 66.73574219 110.85015625 66.47148437 110.2578125 66.19921875 C107.8848042 64.93881469 105.96544034 63.49796574 103.875 61.8125 C96.75331618 56.1852023 89.2891534 51.1064723 81.6171875 46.26171875 C81.08351563 45.84535156 80.54984375 45.42898437 80 45 C80 44.34 80 43.68 80 43 C79.35417969 42.77828125 78.70835937 42.5565625 78.04296875 42.328125 C73.88632545 40.51392895 70.15682638 38.14453898 66.3125 35.75 C64.6888673 34.74989411 63.06516996 33.74989316 61.44140625 32.75 C58.98848077 31.23295836 56.53798934 29.71225108 54.08984375 28.1875 C46.64424429 23.6132419 38.78718021 19.29176188 30.65234375 16.0703125 C26.63505014 14.44919549 22.77444162 12.50903431 18.875 10.625 C12.04002474 7.34853077 5.22846209 4.32285411 -2 2 C-1.34 1.34 -0.68 0.68 0 0 Z " fill="#56646D" transform="translate(656,142)"/>
<path d="M0 0 C0.33 0 0.66 0 1 0 C1.02505615 0.61520508 1.0501123 1.23041016 1.07592773 1.86425781 C1.19218487 4.65970156 1.31477642 7.45483298 1.4375 10.25 C1.47681641 11.21808594 1.51613281 12.18617188 1.55664062 13.18359375 C1.59853516 14.11816406 1.64042969 15.05273438 1.68359375 16.015625 C1.72025146 16.87446289 1.75690918 17.73330078 1.79467773 18.61816406 C1.92827321 20.95651509 1.92827321 20.95651509 2.52294922 22.99145508 C3.10640206 25.44798863 3.04642684 27.59846407 2.94921875 30.12109375 C2.91159424 31.12720703 2.87396973 32.13332031 2.83520508 33.16992188 C2.7864624 34.24822266 2.73771973 35.32652344 2.6875 36.4375 C2.6114856 38.12649414 2.6114856 38.12649414 2.53393555 39.84960938 C2.37078072 43.2340568 2.19074946 46.61700223 2 50 C1.95004883 50.88961426 1.90009766 51.77922852 1.84863281 52.69580078 C0.28800552 77.78015091 -4.73310976 102.88160087 -12.85205078 126.63916016 C-13.8651417 129.60517666 -14.85074251 132.57905184 -15.8293457 135.55657959 C-22.08845329 154.50522829 -29.90908453 172.24434814 -39 190 C-39.72630615 191.43980225 -39.72630615 191.43980225 -40.46728516 192.90869141 C-44.93913654 201.77079689 -49.56411191 210.31430659 -55.25 218.46484375 C-56.88929452 220.83962533 -58.35736104 223.25980684 -59.8125 225.75 C-60.534375 226.8225 -61.25625 227.895 -62 229 C-62.99 229 -63.98 229 -65 229 C-63.61247635 226.11102114 -62.05629115 223.42732912 -60.3203125 220.734375 C-59.80339844 219.92613281 -59.28648437 219.11789062 -58.75390625 218.28515625 C-57.67735702 216.60966356 -56.59925876 214.93516504 -55.51953125 213.26171875 C-52.75625433 208.93509906 -50.20476263 204.62129077 -47.97460938 199.99707031 C-46.92340036 197.84303982 -45.80478676 195.73504513 -44.66796875 193.625 C-39.6330425 184.25038446 -34.994924 174.85196052 -30.88452148 165.03515625 C-30.24898234 163.57287242 -29.58329963 162.12355285 -28.89868164 160.68359375 C-24.94688155 152.34116682 -21.97136138 143.74666425 -19.0625 135 C-18.79954132 134.21330933 -18.53658264 133.42661865 -18.26565552 132.61608887 C-13.7819549 119.12935202 -10.21486068 105.65593801 -7.52441406 91.68701172 C-7.08143169 89.41724262 -6.59995195 87.16457532 -6.0859375 84.91015625 C-0.13089699 57.21019509 -0.38257824 28.18819551 0 0 Z " fill="#556168" transform="translate(902,494)"/>
<path d="M0 0 C4.44097122 0.21147482 7.68530535 1.80278464 11.59179688 3.79638672 C16.31404721 6.15655441 21.13499562 8.30917451 25.9375 10.5 C26.97068359 10.97308594 28.00386719 11.44617188 29.06835938 11.93359375 C33.67924319 14.04192694 38.29463227 16.1348799 42.9375 18.171875 C46.06927579 19.55827377 49.08609352 21.0491963 52.0625 22.75 C52.81660156 23.17796875 53.57070313 23.6059375 54.34765625 24.046875 C54.89292969 24.36140625 55.43820312 24.6759375 56 25 C56 25.66 56 26.32 56 27 C56.72445312 27.27972656 57.44890625 27.55945313 58.1953125 27.84765625 C68.90466492 32.24773837 80.41460028 39.23001109 88.55908203 47.6027832 C89.97356448 49.16013885 89.97356448 49.16013885 92.2421875 49.84375 C96.05894772 51.44397808 98.93374005 53.89996294 102.125 56.5 C103.35605456 57.49047425 104.58780055 58.48008987 105.8203125 59.46875 C106.35930176 59.90638672 106.89829102 60.34402344 107.45361328 60.79492188 C108.91615173 61.93465818 110.45722134 62.97148089 112 64 C112 64.66 112 65.32 112 66 C112.54527344 66.226875 113.09054687 66.45375 113.65234375 66.6875 C116.68598662 68.38351332 119.05482248 70.62846752 121.5625 73 C122.62592288 73.99259391 123.68973403 74.984772 124.75390625 75.9765625 C125.29160645 76.47961914 125.82930664 76.98267578 126.38330078 77.50097656 C127.93767389 78.94221046 129.50853392 80.36186134 131.08984375 81.7734375 C132.53037109 83.06121094 132.53037109 83.06121094 134 84.375 C134.86625 85.14585937 135.7325 85.91671875 136.625 86.7109375 C138.99744711 88.99753948 140.98429523 91.39838538 143 94 C143.598125 94.598125 144.19625 95.19625 144.8125 95.8125 C147.38371445 98.38371445 149.74674833 101.09786475 152.12890625 103.84375 C154.5422907 106.62493625 156.98257343 109.38216248 159.421875 112.140625 C164 117.53465347 164 117.53465347 164 120 C164.99 120.33 165.98 120.66 167 121 C168.4049807 122.98753368 169.53467764 125.06224191 170.71875 127.1875 C171.95327565 129.31338935 171.95327565 129.31338935 175 130 C176.5703125 132.3984375 176.5703125 132.3984375 178.125 135.375 C178.64320313 136.35210937 179.16140625 137.32921875 179.6953125 138.3359375 C181 141 181 141 182 144 C181.01 144 180.02 144 179 144 C177.73242188 142.66162109 177.73242188 142.66162109 176.46875 140.7734375 C175.99332764 140.07790771 175.51790527 139.38237793 175.02807617 138.66577148 C174.27167847 137.5318396 174.27167847 137.5318396 173.5 136.375 C172.42615706 134.80915011 171.34927778 133.24537862 170.26953125 131.68359375 C169.72506348 130.89581543 169.1805957 130.10803711 168.61962891 129.29638672 C162.62061481 120.79069987 155.97162274 112.72143114 149 105 C148.38511719 104.29359375 147.77023437 103.5871875 147.13671875 102.859375 C142.26189949 97.31438285 137.14722647 92.04209025 131.9375 86.8125 C131.27693604 86.14734375 130.61637207 85.4821875 129.93579102 84.796875 C124.84051512 79.71737786 119.65940615 74.5791357 113.76538086 70.42504883 C113.18280518 69.95478271 112.60022949 69.4845166 112 69 C112 68.34 112 67.68 112 67 C111.42507813 66.73574219 110.85015625 66.47148437 110.2578125 66.19921875 C107.8848042 64.93881469 105.96544034 63.49796574 103.875 61.8125 C96.75331618 56.1852023 89.2891534 51.1064723 81.6171875 46.26171875 C81.08351563 45.84535156 80.54984375 45.42898437 80 45 C80 44.34 80 43.68 80 43 C79.35417969 42.77828125 78.70835937 42.5565625 78.04296875 42.328125 C73.88632545 40.51392895 70.15682638 38.14453898 66.3125 35.75 C64.6888673 34.74989411 63.06516996 33.74989316 61.44140625 32.75 C58.98848077 31.23295836 56.53798934 29.71225108 54.08984375 28.1875 C46.64424429 23.6132419 38.78718021 19.29176188 30.65234375 16.0703125 C26.63505014 14.44919549 22.77444162 12.50903431 18.875 10.625 C12.04002474 7.34853077 5.22846209 4.32285411 -2 2 C-1.34 1.34 -0.68 0.68 0 0 Z " fill="#56788B" transform="translate(656,142)"/>
<path d="M0 0 C0.66 0 1.32 0 2 0 C3.14160156 1.49365234 3.14160156 1.49365234 4.390625 3.5859375 C4.84977295 4.34664551 5.3089209 5.10735352 5.78198242 5.89111328 C6.26642822 6.7107959 6.75087402 7.53047852 7.25 8.375 C7.74798096 9.20628418 8.24596191 10.03756836 8.7590332 10.89404297 C9.74325018 12.53778015 10.72484805 14.18308887 11.70361328 15.83007812 C13.16787308 18.28098981 14.67889903 20.70120897 16.1875 23.125 C23.76951197 35.84111722 29.71502999 49.61534164 36 63 C35.34 63.66 34.68 64.32 34 65 C29.88753877 57.38757177 25.84021384 49.7539109 22 42 C15.3311293 28.5757982 8.32422384 15.48633576 0 3 C0 2.01 0 1.02 0 0 Z " fill="#566C79" transform="translate(837,286)"/>
<path d="M0 0 C0.33 0 0.66 0 1 0 C1.495 10.395 1.495 10.395 2 21 C-21.1 20.67 -44.2 20.34 -68 20 C-68 19.67 -68 19.34 -68 19 C-45.56 19 -23.12 19 0 19 C0 12.73 0 6.46 0 0 Z " fill="#49B8F5" transform="translate(641,336)"/>
<path d="M0 0 C0.33 0.66 0.66 1.32 1 2 C1.66 2 2.32 2 3 2 C4.76038424 10.02197874 5.3088545 17.67460572 5.25 25.875 C5.25773438 26.97585938 5.26546875 28.07671875 5.2734375 29.2109375 C5.27085937 30.273125 5.26828125 31.3353125 5.265625 32.4296875 C5.26336914 33.38085449 5.26111328 34.33202148 5.25878906 35.31201172 C4.98115537 38.19573528 4.19909357 40.37616416 3 43 C2.67 43 2.34 43 2 43 C2.01047363 42.23034912 2.02094727 41.46069824 2.03173828 40.66772461 C2.38072311 20.23848103 2.38072311 20.23848103 0 0 Z " fill="#4DB7F0" transform="translate(734,363)"/>
<path d="M0 0 C3.6460095 0.1736195 6.45589135 1.13284133 9.6484375 2.7890625 C14.05565282 5.03880044 18.5185086 7.15294163 23 9.25 C23.77472656 9.61351562 24.54945313 9.97703125 25.34765625 10.3515625 C27.23135074 11.23527102 29.11561487 12.11776514 31 13 C31 13.66 31 14.32 31 15 C26.14460488 14.36213437 22.21250737 12.32371876 17.875 10.1875 C11.37182429 7.04769752 4.87104027 4.25571949 -2 2 C-1.34 1.34 -0.68 0.68 0 0 Z " fill="#566F7D" transform="translate(656,142)"/>
<path d="M0 0 C9.78762681 0.37644719 19.09987657 5.09987657 26 12 C27.375 14.3125 27.375 14.3125 28 16 C27.01 16 26.02 16 25 16 C23.33333333 14.33333333 21.66666667 12.66666667 20 11 C15.0419416 7.20398654 10.15716233 5.21703251 4.1015625 3.7734375 C2 3 2 3 0 0 Z " fill="#4CB6F0" transform="translate(654,503)"/>
<path d="M0 0 C6.21822823 0.10721083 10.9486258 1.61919503 16.5 4.375 C17.12342285 4.67929932 17.7468457 4.98359863 18.38916016 5.29711914 C22.87173345 7.61520036 22.87173345 7.61520036 24 11 C19.23414417 9.52221525 14.81135511 7.62705514 10.3125 5.5 C9.64927734 5.19191406 8.98605469 4.88382812 8.30273438 4.56640625 C5.37983864 3.19473514 2.69189003 1.79459335 0 0 Z " fill="#4CB7F2" transform="translate(418,446)"/>
<path d="M0 0 C7.26 0.33 14.52 0.66 22 1 C22 1.33 22 1.66 22 2 C24.97 2.495 24.97 2.495 28 3 C28 3.33 28 3.66 28 4 C18.04558208 4.40846396 9.65386332 3.46481617 0 1 C0 0.67 0 0.34 0 0 Z " fill="#4BB8F2" transform="translate(602,478)"/>
<path d="M0 0 C0.96045004 3.15995396 0.99146792 5.77819673 0.8125 9.0625 C0.72823593 15.34017346 2.59474917 20.281492 5 26 C5.33 26.99 5.66 27.98 6 29 C2.73309872 27.98613409 2.01672866 27.03140151 0.37890625 23.95703125 C-1.34449549 19.70560945 -1.3765968 15.78374788 -1.25 11.25 C-1.24484375 10.49589844 -1.2396875 9.74179687 -1.234375 8.96484375 C-1.1884895 5.73565189 -1.0269659 3.0808977 0 0 Z " fill="#4DB9F2" transform="translate(589,423)"/>
<path d="M0 0 C3.23309603 1.05862436 4.06773696 2.10738786 5.921875 5.046875 C6.54385184 6.27494843 7.15288774 7.50964663 7.75 8.75 C8.06582031 9.3584375 8.38164063 9.966875 8.70703125 10.59375 C10.66282137 14.55612998 11.35086811 17.60065364 11 22 C8.58037117 19.58037117 7.8680925 17.43295023 6.625 14.25 C4.79452449 9.71998048 2.81547343 5.96251817 0 2 C0 1.34 0 0.68 0 0 Z " fill="#4CB6F0" transform="translate(723,340)"/>
<path d="M0 0 C0.33 0 0.66 0 1 0 C1.31806054 7.7276932 1.32270836 13.93924474 -2 21 C-2.66 21 -3.32 21 -4 21 C-3.71125 19.7625 -3.4225 18.525 -3.125 17.25 C-1.84975069 11.53870489 -0.91894311 5.77761039 0 0 Z " fill="#4CB7F0" transform="translate(769,288)"/>
<path d="M0 0 C3.38579137 4.51438849 3.38579137 4.51438849 2.8125 8.75 C2.69648437 9.61882813 2.58046875 10.48765625 2.4609375 11.3828125 C1.82587817 14.98865783 0.97993896 18.47221976 0 22 C-0.33 22 -0.66 22 -1 22 C-0.67 14.74 -0.34 7.48 0 0 Z " fill="#4DB7F0" transform="translate(687,536)"/>
<path d="M0 0 C0.99 0.33 1.98 0.66 3 1 C2.29875 1.45375 1.5975 1.9075 0.875 2.375 C-3.11234857 6.01562261 -5.34995337 10.34493275 -8 15 C-8.66 15.99 -9.32 16.98 -10 18 C-9.67210504 10.130521 -5.50605536 5.3412034 0 0 Z " fill="#4BB7F1" transform="translate(600,404)"/>
<path d="M0 0 C0.33 0 0.66 0 1 0 C1.54308106 4.79137641 -0.03381915 7.03605499 -2.875 10.8125 C-3.59429688 11.78832031 -4.31359375 12.76414062 -5.0546875 13.76953125 C-6.01761719 14.87361328 -6.01761719 14.87361328 -7 16 C-7.66 16 -8.32 16 -9 16 C-7.30403824 12.48876259 -5.38971877 9.12460782 -3.4375 5.75 C-2.81746094 4.67234375 -2.19742188 3.5946875 -1.55859375 2.484375 C-1.04425781 1.66453125 -0.52992188 0.8446875 0 0 Z " fill="#4CB7F0" transform="translate(728,428)"/>
<path d="M0 0 C1.32 0 2.64 0 4 0 C4 3.63 4 7.26 4 11 C2 7 2 7 2 3 C-1.63 3.33 -5.26 3.66 -9 4 C-9 3.67 -9 3.34 -9 3 C-4.545 2.505 -4.545 2.505 0 2 C0 1.34 0 0.68 0 0 Z " fill="#4CB9F3" transform="translate(313,535)"/>
<path d="M0 0 C0.66 0 1.32 0 2 0 C6.59225513 10.37357631 6.59225513 10.37357631 6 16 C3.63224279 13.63224279 3.00103504 11.70288662 1.875 8.5625 C1.52179688 7.59441406 1.16859375 6.62632812 0.8046875 5.62890625 C0 3 0 3 0 0 Z " fill="#4CB8F0" transform="translate(472,345)"/>
<path d="M0 0 C-0.66 0 -1.32 0 -2 0 C-2 0.66 -2 1.32 -2 2 C-3.59766103 2.86627399 -5.20339944 3.71766465 -6.8125 4.5625 C-7.70582031 5.03816406 -8.59914063 5.51382812 -9.51953125 6.00390625 C-12 7 -12 7 -15 6 C-4.8 -1.6 -4.8 -1.6 0 0 Z " fill="#4CB7F1" transform="translate(352,359)"/>
<path d="M0 0 C-2.1755306 2.1755306 -3.55973892 2.71879553 -6.4375 3.6875 C-7.61119141 4.09548828 -7.61119141 4.09548828 -8.80859375 4.51171875 C-11 5 -11 5 -14 4 C-13.34 4 -12.68 4 -12 4 C-12 3.34 -12 2.68 -12 2 C-7.82262526 0.40861915 -4.46839215 -0.21278058 0 0 Z " fill="#4CB7F1" transform="translate(330,296)"/>
<path d="M0 0 C-5.7143875 3.33339271 -11.54711078 4.6132223 -18 3 C-18 2.67 -18 2.34 -18 2 C-16.12612523 1.6603981 -14.25083303 1.32861309 -12.375 1 C-11.33085937 0.814375 -10.28671875 0.62875 -9.2109375 0.4375 C-6.09425135 0.01284203 -3.14069188 -0.07545206 0 0 Z " fill="#49ADE3" transform="translate(265,544)"/>
<path d="M0 0 C4.84659077 0.59104765 8.60748167 1.97944157 13 4 C13 4.33 13 4.66 13 5 C5.375 4.125 5.375 4.125 2 3 C2 2.34 2 1.68 2 1 C1.34 0.67 0.68 0.34 0 0 Z " fill="#4CB7F2" transform="translate(370,501)"/>
<path d="M0 0 C2.64 0 5.28 0 8 0 C5.2656934 2.7343066 3.23006445 2.95340665 -0.578125 3.09765625 C-1.45984375 3.08605469 -2.3415625 3.07445312 -3.25 3.0625 C-4.14203125 3.05347656 -5.0340625 3.04445313 -5.953125 3.03515625 C-6.62859375 3.02355469 -7.3040625 3.01195312 -8 3 C-8 2.67 -8 2.34 -8 2 C-5.36 2 -2.72 2 0 2 C0 1.34 0 0.68 0 0 Z " fill="#4CB8F3" transform="translate(656,578)"/>
<path d="M0 0 C0.33 0 0.66 0 1 0 C1.36463732 1.74784829 1.7163078 3.49840502 2.0625 5.25 C2.25972656 6.22453125 2.45695313 7.1990625 2.66015625 8.203125 C2.98397535 10.868119 2.85503199 12.48871723 2 15 C-0.35119399 11.47320901 -0.21443452 9.97120515 -0.125 5.8125 C-0.10695312 4.72582031 -0.08890625 3.63914062 -0.0703125 2.51953125 C-0.04710937 1.68808594 -0.02390625 0.85664062 0 0 Z " fill="#4CB8F3" transform="translate(247,552)"/>
<path d="M0 0 C3.3 1.98 6.6 3.96 10 6 C9.67 6.66 9.34 7.32 9 8 C2.25 5.25 2.25 5.25 0 3 C0 2.01 0 1.02 0 0 Z " fill="#4CB6F0" transform="translate(596,453)"/>
<path d="M0 0 C2.70931419 0.15481795 4.46584039 0.48172081 6.4453125 2.40234375 C7.67679642 3.89771708 8.8429837 5.4462924 10 7 C6.433255 7 5.89456323 6.36308045 3.3125 4.0625 C2.68988281 3.51722656 2.06726563 2.97195313 1.42578125 2.41015625 C0.95527344 1.94480469 0.48476563 1.47945313 0 1 C0 0.67 0 0.34 0 0 Z " fill="#4CB8F2" transform="translate(450,462)"/>
<path d="M0 0 C3 1 3 1 4.75 3.3125 C6.14972335 6.32190521 5.95287489 6.98041673 5 10 C4.16121545 8.71186658 3.32913217 7.41936744 2.5 6.125 C2.0359375 5.40570313 1.571875 4.68640625 1.09375 3.9453125 C0 2 0 2 0 0 Z " fill="#4CB8F2" transform="translate(473,485)"/>
<path d="M0 0 C2.46800047 1.15173355 4.04783565 2.04783565 6 4 C5.67 4.99 5.34 5.98 5 7 C3.29115995 5.37660195 1.62553283 3.70680947 0 2 C0 1.34 0 0.68 0 0 Z " fill="#4EB8F1" transform="translate(456,322)"/>
<path d="M0 0 C0.33 0 0.66 0 1 0 C1 1.65 1 3.3 1 5 C0.34 4.67 -0.32 4.34 -1 4 C-0.67 2.68 -0.34 1.36 0 0 Z " fill="#4EB3EB" transform="translate(645,352)"/>
<path d="M0 0 C4 1 4 1 4 1 Z " fill="#4FB3E7" transform="translate(296,536)"/>
<path d="M0 0 C0.99 0.495 0.99 0.495 2 1 C1.67 1.66 1.34 2.32 1 3 C0.67 2.01 0.34 1.02 0 0 Z " fill="#4DB5EC" transform="translate(587,445)"/>
<path d="M0 0 C0.99 0 1.98 0 3 0 C2.67 0.66 2.34 1.32 2 2 C1.34 1.34 0.68 0.68 0 0 Z " fill="#4EB4EB" transform="translate(371,358)"/>
<path d="M0 0 C0.99 0.33 1.98 0.66 3 1 C2.01 1 1.02 1 0 1 C0 0.67 0 0.34 0 0 Z " fill="#4EB4EC" transform="translate(364,358)"/>
<path d="M0 0 C3 1 3 1 3 1 Z " fill="#4FADE0" transform="translate(683,638)"/>
<path d="" fill="#4DAADC" transform="translate(0,0)"/>
<path d="" fill="#4EB3EB" transform="translate(0,0)"/>
<path d="M0 0 C3 1 3 1 3 1 Z " fill="#4CB4ED" transform="translate(584,359)"/>
<path d="M0 0 C3 1 3 1 3 1 Z " fill="#4DAEE0" transform="translate(351,288)"/>
<path d="M0 0 C2 1 2 1 2 1 Z " fill="#50AEE0" transform="translate(677,639)"/>
<path d="" fill="#4EA9DA" transform="translate(0,0)"/>
<path d="M0 0 C2 1 2 1 2 1 Z " fill="#4EB5E9" transform="translate(657,576)"/>
<path d="M0 0 C2 1 2 1 2 1 Z " fill="#4EB3E9" transform="translate(393,576)"/>
<path d="" fill="#4EB3EB" transform="translate(0,0)"/>
<path d="" fill="#4EADDF" transform="translate(0,0)"/>
<path d="M0 0 C2 1 2 1 2 1 Z " fill="#4FB4ED" transform="translate(657,507)"/>
<path d="M0 0 C2 1 2 1 2 1 Z " fill="#4EB3EB" transform="translate(377,507)"/>
<path d="M0 0 C2 1 2 1 2 1 Z " fill="#4EB0E8" transform="translate(353,499)"/>
<path d="M0 0 C2 1 2 1 2 1 Z " fill="#4BAEE5" transform="translate(344,495)"/>
<path d="M0 0 C2 1 2 1 2 1 Z " fill="#4FB4E9" transform="translate(645,463)"/>
<path d="" fill="#4DB4EC" transform="translate(0,0)"/>
<path d="" fill="#4DACE2" transform="translate(0,0)"/>
<path d="" fill="#4EB4EC" transform="translate(0,0)"/>
<path d="" fill="#4FACE0" transform="translate(0,0)"/>
<path d="" fill="#4FB4EA" transform="translate(0,0)"/>
<path d="M0 0 C2 1 2 1 2 1 Z " fill="#4DB2EA" transform="translate(459,390)"/>
<path d="" fill="#50ACDF" transform="translate(0,0)"/>
<path d="" fill="#4EB4EA" transform="translate(0,0)"/>
<path d="M0 0 C2 1 2 1 2 1 Z " fill="#4DB2EA" transform="translate(397,367)"/>
<path d="M0 0 C2 1 2 1 2 1 Z " fill="#4EB3EB" transform="translate(604,359)"/>
<path d="M0 0 C2 1 2 1 2 1 Z " fill="#4CB2EC" transform="translate(600,359)"/>
<path d="M0 0 C2 1 2 1 2 1 Z " fill="#4EB2EC" transform="translate(588,359)"/>
<path d="M0 0 C2 1 2 1 2 1 Z " fill="#4DB3EC" transform="translate(379,359)"/>
<path d="M0 0 C2 1 2 1 2 1 Z " fill="#4CB2EC" transform="translate(376,359)"/>
<path d="M0 0 C2 1 2 1 2 1 Z " fill="#4FACDD" transform="translate(299,305)"/>
<path d="" fill="#51A7D6" transform="translate(0,0)"/>
<path d="M0 0 C2 1 2 1 2 1 Z " fill="#4EB3E8" transform="translate(742,279)"/>
<path d="" fill="#4FB2EA" transform="translate(0,0)"/>
<path d="" fill="#4FB4EC" transform="translate(0,0)"/>
<path d="M0 0 C2 1 2 1 2 1 Z " fill="#4DB2EA" transform="translate(684,255)"/>
<path d="" fill="#4EA4D2" transform="translate(0,0)"/>
<path d="M0 0 C2 1 2 1 2 1 Z " fill="#4C9EC9" transform="translate(668,192)"/>
<path d="" fill="#3F4345" transform="translate(0,0)"/>
<path d="" fill="#292B2B" transform="translate(0,0)"/>
<path d="" fill="#202222" transform="translate(0,0)"/>
<path d="" fill="#272A2A" transform="translate(0,0)"/>
<path d="" fill="#424646" transform="translate(0,0)"/>
<path d="" fill="#454B4E" transform="translate(0,0)"/>
<path d="" fill="#404446" transform="translate(0,0)"/>
<path d="" fill="#272A29" transform="translate(0,0)"/>
<path d="" fill="#2F2F31" transform="translate(0,0)"/>
<path d="" fill="#4B5354" transform="translate(0,0)"/>
<path d="" fill="#45494C" transform="translate(0,0)"/>
<path d="" fill="#333537" transform="translate(0,0)"/>
<path d="" fill="#2B2D2C" transform="translate(0,0)"/>
<path d="" fill="#54595D" transform="translate(0,0)"/>
<path d="" fill="#586265" transform="translate(0,0)"/>
<path d="" fill="#4C5E65" transform="translate(0,0)"/>
<path d="" fill="#586369" transform="translate(0,0)"/>
<path d="" fill="#393F41" transform="translate(0,0)"/>
<path d="" fill="#51ADDF" transform="translate(0,0)"/>
<path d="" fill="#52AEE1" transform="translate(0,0)"/>
<path d="" fill="#51A8DA" transform="translate(0,0)"/>
<path d="" fill="#53ABDB" transform="translate(0,0)"/>
<path d="" fill="#4EADE1" transform="translate(0,0)"/>
<path d="" fill="#54B0DF" transform="translate(0,0)"/>
<path d="" fill="#53ADDE" transform="translate(0,0)"/>
<path d="" fill="#4DB1E2" transform="translate(0,0)"/>
<path d="" fill="#5B666D" transform="translate(0,0)"/>
<path d="" fill="#51AFE2" transform="translate(0,0)"/>
<path d="" fill="#41464B" transform="translate(0,0)"/>
<path d="" fill="#51A9D8" transform="translate(0,0)"/>
<path d="" fill="#50ABDC" transform="translate(0,0)"/>
<path d="" fill="#52ABDB" transform="translate(0,0)"/>
<path d="" fill="#4EACDE" transform="translate(0,0)"/>
<path d="" fill="#51AADB" transform="translate(0,0)"/>
<path d="" fill="#50AADB" transform="translate(0,0)"/>
<path d="" fill="#4DAADD" transform="translate(0,0)"/>
<path d="" fill="#4FAADA" transform="translate(0,0)"/>
<path d="" fill="#4DABDD" transform="translate(0,0)"/>
<path d="" fill="#4EADE1" transform="translate(0,0)"/>
<path d="" fill="#50B2E8" transform="translate(0,0)"/>
<path d="" fill="#50B4E9" transform="translate(0,0)"/>
<path d="" fill="#4DAADF" transform="translate(0,0)"/>
<path d="" fill="#4EA9DB" transform="translate(0,0)"/>
<path d="" fill="#4EB4E9" transform="translate(0,0)"/>
<path d="" fill="#4EB2EB" transform="translate(0,0)"/>
<path d="" fill="#51ADDF" transform="translate(0,0)"/>
<path d="" fill="#51AEDF" transform="translate(0,0)"/>
<path d="" fill="#4EACDE" transform="translate(0,0)"/>
<path d="" fill="#53A9D7" transform="translate(0,0)"/>
<path d="" fill="#50ACDE" transform="translate(0,0)"/>
<path d="" fill="#4FACDF" transform="translate(0,0)"/>
<path d="" fill="#52A9D6" transform="translate(0,0)"/>
<path d="" fill="#4EB5EA" transform="translate(0,0)"/>
<path d="" fill="#4CADE1" transform="translate(0,0)"/>
<path d="" fill="#51A8D7" transform="translate(0,0)"/>
<path d="" fill="#53A4D4" transform="translate(0,0)"/>
<path d="" fill="#4FB1E8" transform="translate(0,0)"/>
<path d="" fill="#4BB4EB" transform="translate(0,0)"/>
<path d="" fill="#50B2E7" transform="translate(0,0)"/>
<path d="" fill="#4DB1E6" transform="translate(0,0)"/>
<path d="" fill="#50B0E7" transform="translate(0,0)"/>
<path d="" fill="#4DB4EE" transform="translate(0,0)"/>
<path d="" fill="#4DB3EB" transform="translate(0,0)"/>
<path d="" fill="#50B5EC" transform="translate(0,0)"/>
<path d="" fill="#4DB4EE" transform="translate(0,0)"/>
<path d="" fill="#50AEE0" transform="translate(0,0)"/>
<path d="" fill="#4FB2EA" transform="translate(0,0)"/>
<path d="" fill="#4EB4EA" transform="translate(0,0)"/>
<path d="" fill="#4FB5ED" transform="translate(0,0)"/>
<path d="" fill="#4DB1EB" transform="translate(0,0)"/>
<path d="" fill="#51ADE0" transform="translate(0,0)"/>
<path d="" fill="#4CB3EB" transform="translate(0,0)"/>
<path d="" fill="#4FB6EC" transform="translate(0,0)"/>
<path d="" fill="#51AEE0" transform="translate(0,0)"/>
<path d="" fill="#50B4EB" transform="translate(0,0)"/>
<path d="" fill="#4EB1E7" transform="translate(0,0)"/>
<path d="" fill="#4CB2EA" transform="translate(0,0)"/>
<path d="" fill="#4EB5EA" transform="translate(0,0)"/>
<path d="" fill="#4DB0E9" transform="translate(0,0)"/>
<path d="" fill="#4FB2E7" transform="translate(0,0)"/>
<path d="" fill="#50B2EA" transform="translate(0,0)"/>
<path d="" fill="#4DAFE7" transform="translate(0,0)"/>
<path d="" fill="#4DB2EA" transform="translate(0,0)"/>
<path d="" fill="#4EAEE7" transform="translate(0,0)"/>
<path d="" fill="#4FB0E7" transform="translate(0,0)"/>
<path d="" fill="#4FB4EA" transform="translate(0,0)"/>
<path d="" fill="#4EB2E6" transform="translate(0,0)"/>
<path d="" fill="#51B7ED" transform="translate(0,0)"/>
<path d="" fill="#4FB6EB" transform="translate(0,0)"/>
<path d="" fill="#4FB4EC" transform="translate(0,0)"/>
<path d="" fill="#4EB3E9" transform="translate(0,0)"/>
<path d="" fill="#4EB4ED" transform="translate(0,0)"/>
<path d="" fill="#51B4EB" transform="translate(0,0)"/>
<path d="" fill="#5B7683" transform="translate(0,0)"/>
<path d="" fill="#4DB3EA" transform="translate(0,0)"/>
<path d="" fill="#52B3E7" transform="translate(0,0)"/>
<path d="" fill="#51B5EB" transform="translate(0,0)"/>
<path d="" fill="#4CB2E9" transform="translate(0,0)"/>
<path d="" fill="#50B3E7" transform="translate(0,0)"/>
<path d="" fill="#50B1E7" transform="translate(0,0)"/>
<path d="" fill="#4FB5EE" transform="translate(0,0)"/>
<path d="" fill="#4EB1EC" transform="translate(0,0)"/>
<path d="" fill="#535D63" transform="translate(0,0)"/>
<path d="" fill="#50B6ED" transform="translate(0,0)"/>
<path d="" fill="#4EB4EC" transform="translate(0,0)"/>
<path d="" fill="#4EB3ED" transform="translate(0,0)"/>
<path d="" fill="#4FB5EE" transform="translate(0,0)"/>
<path d="" fill="#4EB3E9" transform="translate(0,0)"/>
<path d="" fill="#4FB5EE" transform="translate(0,0)"/>
<path d="" fill="#4FACDF" transform="translate(0,0)"/>
<path d="" fill="#51B5ED" transform="translate(0,0)"/>
<path d="" fill="#4EB4EC" transform="translate(0,0)"/>
<path d="" fill="#4DB2EA" transform="translate(0,0)"/>
<path d="" fill="#4DB4EC" transform="translate(0,0)"/>
<path d="" fill="#4EB4EC" transform="translate(0,0)"/>
<path d="" fill="#4CAFE5" transform="translate(0,0)"/>
<path d="" fill="#4CB3EC" transform="translate(0,0)"/>
<path d="" fill="#4DB6EC" transform="translate(0,0)"/>
<path d="" fill="#4EAEE1" transform="translate(0,0)"/>
<path d="" fill="#50ADE0" transform="translate(0,0)"/>
<path d="" fill="#50ACDE" transform="translate(0,0)"/>
<path d="" fill="#4CB3ED" transform="translate(0,0)"/>
<path d="" fill="#4FB5EA" transform="translate(0,0)"/>
<path d="" fill="#50B0E3" transform="translate(0,0)"/>
<path d="" fill="#4DB3EC" transform="translate(0,0)"/>
<path d="" fill="#4DB3EA" transform="translate(0,0)"/>
<path d="" fill="#4DB2E8" transform="translate(0,0)"/>
<path d="" fill="#4FABDF" transform="translate(0,0)"/>
<path d="" fill="#4DB0E8" transform="translate(0,0)"/>
<path d="" fill="#4DB4EC" transform="translate(0,0)"/>
<path d="" fill="#52B4EB" transform="translate(0,0)"/>
<path d="" fill="#4CB2ED" transform="translate(0,0)"/>
<path d="" fill="#4DABE0" transform="translate(0,0)"/>
<path d="" fill="#4BB3ED" transform="translate(0,0)"/>
<path d="" fill="#4EB4EC" transform="translate(0,0)"/>
<path d="" fill="#4FAEE3" transform="translate(0,0)"/>
<path d="" fill="#4EB1EA" transform="translate(0,0)"/>
<path d="" fill="#4EB0E5" transform="translate(0,0)"/>
<path d="" fill="#4CB4ED" transform="translate(0,0)"/>
<path d="" fill="#4EB4EB" transform="translate(0,0)"/>
<path d="" fill="#4FB3EB" transform="translate(0,0)"/>
<path d="" fill="#4FB2EA" transform="translate(0,0)"/>
<path d="" fill="#4DB2ED" transform="translate(0,0)"/>
<path d="" fill="#4EB2EB" transform="translate(0,0)"/>
<path d="" fill="#51ACDD" transform="translate(0,0)"/>
<path d="" fill="#4CB4EB" transform="translate(0,0)"/>
<path d="" fill="#4CB5E8" transform="translate(0,0)"/>
<path d="" fill="#4EB3EC" transform="translate(0,0)"/>
<path d="" fill="#4CB4EC" transform="translate(0,0)"/>
<path d="" fill="#4EB2EA" transform="translate(0,0)"/>
<path d="" fill="#4BB5ED" transform="translate(0,0)"/>
<path d="" fill="#4EB4EC" transform="translate(0,0)"/>
<path d="" fill="#4EB5ED" transform="translate(0,0)"/>
<path d="" fill="#4DB3EA" transform="translate(0,0)"/>
<path d="" fill="#4CB2EA" transform="translate(0,0)"/>
<path d="" fill="#4FACDF" transform="translate(0,0)"/>
<path d="" fill="#4FB3E9" transform="translate(0,0)"/>
<path d="" fill="#3F474A" transform="translate(0,0)"/>
<path d="" fill="#5B6C76" transform="translate(0,0)"/>
<path d="" fill="#51B0E4" transform="translate(0,0)"/>
<path d="" fill="#4EB3E7" transform="translate(0,0)"/>
<path d="" fill="#4CAEE6" transform="translate(0,0)"/>
<path d="" fill="#4CB1E8" transform="translate(0,0)"/>
<path d="" fill="#4FB3E9" transform="translate(0,0)"/>
<path d="" fill="#4FB3ED" transform="translate(0,0)"/>
<path d="" fill="#4DAEE0" transform="translate(0,0)"/>
<path d="" fill="#50ABDC" transform="translate(0,0)"/>
<path d="" fill="#4FAFE4" transform="translate(0,0)"/>
<path d="" fill="#4FADE0" transform="translate(0,0)"/>
<path d="" fill="#4BAFE4" transform="translate(0,0)"/>
<path d="" fill="#50ACDD" transform="translate(0,0)"/>
<path d="" fill="#50ABDD" transform="translate(0,0)"/>
<path d="" fill="#4CACE0" transform="translate(0,0)"/>
<path d="" fill="#50ADDE" transform="translate(0,0)"/>
<path d="" fill="#4DB0E5" transform="translate(0,0)"/>
<path d="" fill="#50B3E8" transform="translate(0,0)"/>
<path d="" fill="#4FAEE4" transform="translate(0,0)"/>
<path d="" fill="#4FADE2" transform="translate(0,0)"/>
<path d="" fill="#4FACE0" transform="translate(0,0)"/>
<path d="" fill="#51ACE0" transform="translate(0,0)"/>
<path d="" fill="#51B1E8" transform="translate(0,0)"/>
<path d="" fill="#4FB1E9" transform="translate(0,0)"/>
<path d="" fill="#4FB2EA" transform="translate(0,0)"/>
<path d="" fill="#4EA8D7" transform="translate(0,0)"/>
<path d="" fill="#4EB2EA" transform="translate(0,0)"/>
<path d="" fill="#4FB2EA" transform="translate(0,0)"/>
<path d="" fill="#4CB0EA" transform="translate(0,0)"/>
<path d="" fill="#4DB4EA" transform="translate(0,0)"/>
<path d="" fill="#4AA8DA" transform="translate(0,0)"/>
<path d="" fill="#4EACDC" transform="translate(0,0)"/>
<path d="" fill="#52A9D7" transform="translate(0,0)"/>
<path d="" fill="#4EA9D9" transform="translate(0,0)"/>
<path d="" fill="#4EABD8" transform="translate(0,0)"/>
<path d="" fill="#4EA9D8" transform="translate(0,0)"/>
<path d="" fill="#4BA7D8" transform="translate(0,0)"/>
<path d="" fill="#4BA6D7" transform="translate(0,0)"/>
<path d="" fill="#4FA7D5" transform="translate(0,0)"/>
<path d="" fill="#49A5D4" transform="translate(0,0)"/>
<path d="" fill="#50A3CE" transform="translate(0,0)"/>
<path d="" fill="#529EC8" transform="translate(0,0)"/>
<path d="" fill="#3C4144" transform="translate(0,0)"/>
<path d="" fill="#5B7682" transform="translate(0,0)"/>
<path d="" fill="#4D565C" transform="translate(0,0)"/>
<path d="" fill="#262828" transform="translate(0,0)"/>
<path d="" fill="#4E545A" transform="translate(0,0)"/>
<path d="" fill="#383E3E" transform="translate(0,0)"/>
<path d="" fill="#4A5155" transform="translate(0,0)"/>
<path d="" fill="#4B5458" transform="translate(0,0)"/>
<path d="" fill="#424749" transform="translate(0,0)"/>
<path d="" fill="#1E2121" transform="translate(0,0)"/>
<path d="" fill="#45494D" transform="translate(0,0)"/>
<path d="" fill="#3A3F40" transform="translate(0,0)"/>
<path d="" fill="#424649" transform="translate(0,0)"/>
<path d="" fill="#43494B" transform="translate(0,0)"/>
<path d="" fill="#44494C" transform="translate(0,0)"/>
</svg>
